PathFileType	4	(x/y/z)	Passive_Pref0001.trc
DataRate	CameraRate	NumFrames	NumMarkers	Units	OrigDataRate	OrigDataStartFrame	OrigNumFrames
240	240	9	50	mm	240	78	311
Frame#	Time	R_AC			L_AC			HEAD			STERN			C7			L_IC			R_IC			L_ASIS			R_ASIS			L_GT			R_GT			R_PSIS			L_PSIS			SACRAL			L_LAT_KNEE			L_MED_KNEE			R_LAT_KNEE			R_MED_KNEE			L_LAT_ANK			L_MED_ANK			R_LAT_ANK			R_MED_ANK			L_THIGH_PROX_POST			L_THIGH_PROX_ANT			L_THIGH_DIST_ANT			L_THIGH_DIST_POST			R_THIGH_PROX_POST			R_THIGH_PROX_ANT			R_THIGH_DIST_ANT			R_THIGH_DIST_POST			L_SHANK_PROX_POST			L_SHANK_PROX_ANT			L_SHANK_DIST_ANT			L_SHANK_DIST_POST			R_SHANK_PROX_POST			R_SHANK_PROX_ANT			R_SHANK_DIST_ANT			R_SHANK_DIST_POST			L_HEEL_LAT			L_HEEL_SUP			L_HEEL_MED			R_HEEL_LAT			R_HEEL_SUP			R_HEEL_MED			L_1ST_MET			L_5TH_MET			L_TOE			R_1ST_MET			R_5TH_MET			R_TOE			
		X1	Y1	Z1	X2	Y2	Z2	X3	Y3	Z3	X4	Y4	Z4	X5	Y5	Z5	X6	Y6	Z6	X7	Y7	Z7	X8	Y8	Z8	X9	Y9	Z9	X10	Y10	Z10	X11	Y11	Z11	X12	Y12	Z12	X13	Y13	Z13	X14	Y14	Z14	X15	Y15	Z15	X16	Y16	Z16	X17	Y17	Z17	X18	Y18	Z18	X19	Y19	Z19	X20	Y20	Z20	X21	Y21	Z21	X22	Y22	Z22	X23	Y23	Z23	X24	Y24	Z24	X25	Y25	Z25	X26	Y26	Z26	X27	Y27	Z27	X28	Y28	Z28	X29	Y29	Z29	X30	Y30	Z30	X31	Y31	Z31	X32	Y32	Z32	X33	Y33	Z33	X34	Y34	Z34	X35	Y35	Z35	X36	Y36	Z36	X37	Y37	Z37	X38	Y38	Z38	X39	Y39	Z39	X40	Y40	Z40	X41	Y41	Z41	X42	Y42	Z42	X43	Y43	Z43	X44	Y44	Z44	X45	Y45	Z45	X46	Y46	Z46	X47	Y47	Z47	X48	Y48	Z48	X49	Y49	Z49	X50	Y50	Z50	

78	0.32187	-383.39	1539.5	415.35	-380.54	1552.4	12.368	-312.66	1854.1	230.65	-293.72	1487.9	224.91	-444.28	1584.1	218.23	-409.13	1123.5	65.722	-406.83	1141.5	401.17	-342.37	1039.1	96.848	-337	1048.5	367.14	-447.61	958.72	52.915	-431.31	963.05	419.02	-552.96	1040.6	281.09	-559.74	1046.1	196.12	-566.57	1009.9	235.84	-393.29	556.87	86.466	-369.01	569.9	222.65	-309.7	564.24	414.63	-288.74	557.95	276.25	-439.66	116.62	117.7	-450.63	117.14	198.83	-633.76	247.15	363.37	-582.59	242.19	269.13	-400.48	791.28	59.111	-337.26	791.72	85.02	-333.6	719.62	93.677	-393.83	715.64	70.512	-427.9	806.4	402.89	-372.28	827.12	428.17	-354.86	753.1	425.46	-401.39	736.21	400.63	-390.24	501.74	99.756	-336.46	529.73	111.53	-335.51	462.98	126.2	-386.5	439.75	104.41	-437.61	478.04	412.01	-394.87	438.52	414.5	-448.02	384.84	401.64	-490.22	421.21	398.05	-497.46	50.875	114.98	-517.89	78.08	146.36	-514.52	49.812	183.28	-713.63	266.83	314.73	-686.8	283.71	282.4	-684.87	246.2	257.71	-290.43	45.145	231.73	-298.48	41.204	117.56	-238.64	66.526	200.83	-537.92	96.995	297.04	-590.82	118.03	401.81	-503.21	74.103	359.31
79	0.32605	-378.85	1539.9	415.53	-375.44	1552.9	12.561	-307.53	1854.4	231.03	-288.95	1488.3	225.16	-439.41	1584.6	218.32	-404.41	1123.8	65.662	-402.1	1142	401.09	-337.75	1039.3	96.636	-332.11	1049.2	366.93	-443.29	959.03	52.96	-426.05	963.76	419.17	-548.14	1040.9	281.36	-555.04	1046.4	196.41	-561.74	1010.1	236.1	-391.17	556.97	86.396	-366.79	569.91	222.59	-300.81	565.84	415.02	-280.02	559.71	276.65	-439.34	116.86	117.71	-450.48	117.31	198.76	-620.35	243.63	363.67	-569.07	239.63	269.4	-397.03	791.5	59.102	-333.8	791.55	84.909	-330.52	719.44	93.598	-390.78	715.8	70.477	-421.25	807.05	403.5	-365.68	828.36	428.54	-347.73	754.52	426.01	-394.15	737.09	401.36	-388.34	501.83	99.697	-334.43	529.62	111.46	-333.74	462.86	126.14	-384.84	439.83	104.36	-427.79	477.59	412.55	-384.43	438.73	414.88	-436.74	384.28	402.05	-479.5	420.01	398.61	-497.35	51.145	114.99	-517.65	78.328	146.39	-514.56	50.135	183.29	-700.64	261.64	315.21	-674.25	279.03	282.77	-671.62	241.55	258.16	-290.3	45.019	231.75	-298.39	41.118	117.56	-238.49	66.256	200.84	-521.35	95.568	297.42	-574.62	115.52	402.2	-486.13	73.478	359.65
80	0.33023	-374.29	1540.3	415.71	-370.36	1553.3	12.756	-302.43	1854.7	231.41	-284.17	1488.6	225.4	-434.54	1585	218.42	-399.71	1124.1	65.612	-397.36	1142.4	401.03	-333.13	1039.5	96.444	-327.21	1049.8	366.73	-438.96	959.31	53.009	-420.8	964.44	419.32	-543.32	1041.1	281.63	-550.34	1046.7	196.71	-556.92	1010.3	236.36	-389.04	557.07	86.332	-364.58	569.92	222.53	-292.04	567.4	415.41	-271.43	561.43	277.04	-439.03	117.11	117.71	-450.34	117.49	198.69	-606.84	239.98	363.99	-555.45	236.96	269.69	-393.6	791.71	59.099	-330.35	791.38	84.827	-327.45	719.25	93.528	-387.73	715.95	70.445	-414.63	807.68	404.12	-359.1	829.57	428.91	-340.65	755.91	426.57	-386.96	737.96	402.11	-386.44	501.93	99.644	-332.4	529.5	111.39	-331.98	462.74	126.08	-383.18	439.92	104.31	-418.03	477.06	413.1	-374.06	438.9	415.27	-425.46	383.66	402.48	-468.81	418.73	399.18	-497.24	51.418	114.99	-517.41	78.575	146.41	-514.56	50.447	183.3	-687.51	256.27	315.68	-661.57	274.18	283.15	-658.21	236.74	258.62	-290.17	44.899	231.77	-298.3	41.036	117.56	-238.33	65.992	200.85	-504.65	94.113	297.83	-558.29	112.95	402.62	-468.95	72.85	360.03
81	0.33441	-369.7	1540.6	415.89	-365.27	1553.7	12.954	-297.36	1855	231.81	-279.39	1488.9	225.64	-429.65	1585.4	218.52	-395.04	1124.4	65.574	-392.61	1142.8	400.98	-328.52	1039.7	96.271	-322.31	1050.4	366.54	-434.64	959.57	53.062	-415.55	965.09	419.48	-538.5	1041.2	281.91	-545.64	1047	197.01	-552.11	1010.5	236.63	-386.92	557.17	86.275	-362.38	569.93	222.48	-283.38	568.94	415.8	-262.97	563.1	277.44	-438.71	117.37	117.71	-450.21	117.68	198.63	-593.24	236.21	364.32	-541.74	234.19	270	-390.17	791.91	59.105	-326.9	791.21	84.773	-324.38	719.07	93.469	-384.69	716.1	70.418	-408.04	808.3	404.76	-352.56	830.75	429.29	-333.6	757.27	427.13	-379.82	738.82	402.85	-384.53	502.02	99.597	-330.38	529.38	111.33	-330.22	462.62	126.03	-381.52	439.99	104.28	-408.33	476.46	413.65	-363.74	439.03	415.66	-414.21	382.98	402.93	-458.13	417.36	399.77	-497.13	51.693	115	-517.15	78.819	146.43	-514.52	50.745	183.31	-674.24	250.74	316.14	-648.75	269.15	283.52	-644.63	231.78	259.09	-290.05	44.785	231.79	-298.21	40.957	117.55	-238.19	65.733	200.86	-487.83	92.637	298.28	-541.85	110.34	403.06	-451.67	72.227	360.45
82	0.33859	-365.08	1540.9	416.07	-360.2	1554.1	13.155	-292.31	1855.3	232.22	-274.59	1489.2	225.87	-424.76	1585.7	218.64	-390.39	1124.6	65.548	-387.84	1143.2	400.94	-323.91	1039.8	96.117	-317.4	1050.9	366.38	-430.32	959.81	53.119	-410.3	965.7	419.65	-533.69	1041.4	282.19	-540.94	1047.2	197.31	-547.31	1010.7	236.9	-384.8	557.26	86.226	-360.18	569.93	222.44	-274.84	570.45	416.19	-254.64	564.73	277.84	-438.4	117.64	117.7	-450.09	117.87	198.56	-579.54	232.34	364.67	-527.92	231.32	270.33	-386.75	792.1	59.119	-323.45	791.03	84.746	-321.33	718.88	93.419	-381.65	716.23	70.398	-401.48	808.9	405.4	-346.06	831.89	429.67	-326.6	758.58	427.71	-372.76	739.65	403.6	-382.63	502.11	99.557	-328.35	529.26	111.28	-328.45	462.49	125.99	-379.86	440.07	104.25	-398.71	475.79	414.2	-353.49	439.11	416.06	-402.97	382.25	403.4	-447.49	415.92	400.37	-497.02	51.971	115.01	-516.88	79.06	146.45	-514.44	51.027	183.33	-660.81	245.06	316.58	-635.79	263.97	283.88	-630.87	226.68	259.56	-289.92	44.677	231.81	-298.12	40.881	117.55	-238.04	65.481	200.87	-470.91	91.148	298.77	-525.3	107.7	403.53	-434.3	71.619	360.93
83	0.34277	-360.44	1541.2	416.25	-355.14	1554.5	13.358	-287.28	1855.5	232.64	-269.79	1489.5	226.1	-419.85	1586	218.77	-385.76	1124.8	65.535	-383.06	1143.5	400.91	-319.32	1039.9	95.982	-312.5	1051.4	366.22	-426	960.04	53.18	-405.06	966.28	419.82	-528.88	1041.5	282.49	-536.25	1047.4	197.62	-542.51	1010.8	237.18	-382.67	557.35	86.187	-357.99	569.93	222.41	-266.42	571.92	416.58	-246.44	566.29	278.25	-438.09	117.91	117.7	-449.97	118.07	198.5	-565.74	228.38	365.04	-514	228.36	270.68	-383.34	792.27	59.142	-320	790.84	84.744	-318.28	718.69	93.379	-378.62	716.36	70.385	-394.95	809.47	406.05	-339.62	832.99	430.05	-319.65	759.85	428.28	-365.76	740.45	404.35	-380.73	502.2	99.525	-326.33	529.13	111.24	-326.69	462.36	125.96	-378.2	440.15	104.22	-389.14	475.05	414.75	-343.31	439.15	416.47	-391.76	381.47	403.89	-436.86	414.4	400.97	-496.92	52.25	115.02	-516.6	79.298	146.48	-514.32	51.292	183.34	-647.23	239.23	317.01	-622.69	258.64	284.24	-616.94	221.45	260.04	-289.79	44.575	231.83	-298.03	40.806	117.56	-237.9	65.234	200.88	-453.87	89.655	299.32	-508.65	105.04	404.05	-416.85	71.033	361.48
84	0.34695	-355.77	1541.4	416.43	-350.08	1554.8	13.564	-282.27	1855.7	233.07	-264.97	1489.7	226.32	-414.94	1586.3	218.9	-381.16	1125	65.535	-378.26	1143.8	400.9	-314.75	1040	95.864	-307.58	1051.9	366.09	-421.7	960.25	53.244	-399.82	966.82	419.99	-524.08	1041.5	282.8	-531.55	1047.5	197.95	-537.72	1010.9	237.47	-380.55	557.43	86.156	-355.8	569.92	222.38	-258.13	573.35	416.96	-238.38	567.8	278.65	-437.79	118.18	117.7	-449.84	118.26	198.45	-551.85	224.34	365.43	-499.98	225.31	271.06	-379.95	792.44	59.176	-316.56	790.66	84.764	-315.24	718.49	93.347	-375.61	716.48	70.381	-388.46	810.01	406.69	-333.24	834.04	430.43	-312.75	761.07	428.86	-358.83	741.23	405.08	-378.83	502.28	99.501	-324.3	528.99	111.21	-324.93	462.23	125.93	-376.53	440.22	104.21	-379.65	474.24	415.29	-333.2	439.14	416.88	-380.57	380.64	404.4	-426.26	412.8	401.57	-496.81	52.529	115.02	-516.31	79.533	146.5	-514.15	51.542	183.36	-633.48	233.27	317.44	-609.43	253.18	284.59	-602.82	216.11	260.51	-289.67	44.478	231.85	-297.94	40.734	117.56	-237.77	64.991	200.89	-436.74	88.164	299.93	-491.91	102.37	404.6	-399.33	70.476	362.09
85	0.35113	-351.08	1541.6	416.62	-345.04	1555.1	13.772	-277.28	1855.9	233.51	-260.14	1489.9	226.53	-410.01	1586.6	219.05	-376.58	1125.1	65.549	-373.45	1144.1	400.9	-310.18	1040	95.764	-302.67	1052.3	365.97	-417.4	960.44	53.313	-394.57	967.32	420.18	-519.28	1041.6	283.11	-526.85	1047.7	198.28	-532.93	1011	237.76	-378.42	557.52	86.136	-353.62	569.91	222.37	-249.97	574.73	417.33	-230.46	569.24	279.06	-437.48	118.46	117.69	-449.72	118.47	198.39	-537.87	220.23	365.85	-485.84	222.19	271.46	-376.56	792.6	59.22	-313.12	790.47	84.803	-312.2	718.29	93.324	-372.6	716.6	70.387	-382	810.53	407.34	-326.93	835.05	430.82	-305.91	762.24	429.44	-351.97	741.98	405.81	-376.92	502.37	99.485	-322.28	528.85	111.19	-323.16	462.1	125.91	-374.87	440.29	104.2	-370.21	473.37	415.82	-323.15	439.09	417.3	-369.41	379.76	404.93	-415.69	411.13	402.18	-496.71	52.81	115.03	-516.01	79.766	146.52	-513.95	51.777	183.37	-619.58	227.2	317.85	-596.02	247.6	284.94	-588.51	210.68	260.99	-289.55	44.386	231.87	-297.86	40.664	117.56	-237.64	64.753	200.89	-419.52	86.685	300.59	-475.08	99.703	405.2	-381.75	69.957	362.77
86	0.35531	-346.36	1541.7	416.81	-340.01	1555.3	13.983	-272.3	1856.1	233.96	-255.3	1490	226.74	-405.08	1586.8	219.21	-372.01	1125.2	65.577	-368.62	1144.3	400.92	-305.63	1040.1	95.68	-297.74	1052.7	365.86	-413.11	960.62	53.388	-389.33	967.79	420.37	-514.48	1041.6	283.44	-522.16	1047.8	198.62	-528.15	1011	238.07	-376.29	557.59	86.124	-351.44	569.89	222.37	-241.94	576.06	417.69	-222.68	570.62	279.46	-437.17	118.75	117.69	-449.58	118.67	198.34	-523.78	216.06	366.29	-471.61	219	271.89	-373.19	792.74	59.275	-309.69	790.27	84.857	-309.17	718.1	93.307	-369.61	716.71	70.403	-375.59	811.02	407.98	-320.7	836.02	431.2	-299.13	763.35	430.01	-345.19	742.69	406.52	-375.01	502.45	99.477	-320.25	528.71	111.18	-321.4	461.96	125.89	-373.2	440.35	104.19	-360.84	472.42	416.34	-313.18	439	417.72	-358.28	378.83	405.47	-405.13	409.4	402.78	-496.61	53.091	115.04	-515.71	79.999	146.54	-513.71	52	183.39	-605.5	221.02	318.25	-582.46	241.9	285.29	-574.02	205.15	261.47	-289.42	44.298	231.88	-297.77	40.596	117.57	-237.51	64.519	200.9	-402.21	85.227	301.33	-458.16	97.053	405.85	-364.11	69.484	363.54
